<svg width="48" height="48" viewBox="0 0 48 48" fill="none" xmlns="http://www.w3.org/2000/svg">
<rect width="48" height="48" fill="white"/>
<g clip-path="url(#clip0_261_426)">
<path d="M31.9419 26.0581L30.25 24.3662V22.125C30.248 20.5762 29.6718 19.0832 28.6328 17.9346C27.5938 16.786 26.1658 16.0635 24.625 15.9068V14.625H23.375V15.9068C21.8342 16.0635 20.4062 16.786 19.3672 17.9346C18.3282 19.0832 17.752 20.5762 17.75 22.125V24.3662L16.0581 26.0581C15.9409 26.1753 15.875 26.3343 15.875 26.5V28.375C15.875 28.5408 15.9408 28.6997 16.0581 28.8169C16.1753 28.9342 16.3342 29 16.5 29H20.875V29.4855C20.8615 30.2784 21.1409 31.0483 21.6599 31.6479C22.1789 32.2475 22.9009 32.6344 23.6875 32.7347C24.122 32.7778 24.5606 32.7295 24.9753 32.5929C25.39 32.4563 25.7715 32.2344 26.0953 31.9415C26.419 31.6486 26.6779 31.2912 26.8553 30.8922C27.0326 30.4933 27.1245 30.0616 27.125 29.625V29H31.5C31.6658 29 31.8247 28.9342 31.9419 28.8169C32.0592 28.6997 32.125 28.5408 32.125 28.375V26.5C32.125 26.3343 32.0591 26.1753 31.9419 26.0581ZM25.875 29.625C25.875 30.1223 25.6775 30.5992 25.3258 30.9508C24.9742 31.3025 24.4973 31.5 24 31.5C23.5027 31.5 23.0258 31.3025 22.6742 30.9508C22.3225 30.5992 22.125 30.1223 22.125 29.625V29H25.875V29.625ZM30.875 27.75H17.125V26.7588L18.8169 25.0669C18.9341 24.9497 19 24.7907 19 24.625V22.125C19 20.7989 19.5268 19.5271 20.4645 18.5895C21.4021 17.6518 22.6739 17.125 24 17.125C25.3261 17.125 26.5979 17.6518 27.5355 18.5895C28.4732 19.5271 29 20.7989 29 22.125V24.625C29 24.7907 29.0659 24.9497 29.1831 25.0669L30.875 26.7588V27.75Z" fill="#636262"/>
</g>
<defs>
<clipPath id="clip0_261_426">
<rect width="20" height="20" fill="white" transform="translate(14 14)"/>
</clipPath>
</defs>
</svg>
